<?xml version="1.0" encoding="UTF-8" standalone="no"?>
<!DOCTYPE svg PUBLIC "-//W3C//DTD SVG 1.1//EN" "http://www.w3.org/Graphics/SVG/1.1/DTD/svg11.dtd">
<svg version="1.1" xmlns="http://www.w3.org/2000/svg" xmlns:xlink="http://www.w3.org/1999/xlink" preserveAspectRatio="xMidYMid meet" viewBox="0 0 476.67 512" width="476.67" height="512"><defs><path d="M238.34 0L238.34 0L0 84.99L36.35 400.13L238.34 512L238.34 512L238.34 512L440.32 400.13L476.67 84.99L238.34 0L238.34 0Z" id="b3ZYFGdTIj"></path><path d="M238.34 56.83L238.34 56.57L238.34 315.9L238.34 315.9L238.34 512L238.34 512L440.32 400.13L476.67 84.99L238.34 0L238.34 0L238.34 56.83Z" id="dkA66EAxo"></path><path d="M89.34 390.65L89.34 390.65L144.9 390.65L144.9 390.65L174.85 315.9L301.31 315.9L331.26 390.65L331.26 390.65L386.82 390.65L386.82 390.65L238.34 56.57L238.34 56.57L238.34 56.57L238.34 56.57L238.34 56.57L89.34 390.65ZM194.82 269.82L238.34 165.12L281.86 269.82L194.82 269.82Z" id="g4hi5UotED"></path></defs><g><g><g><g><use xlink:href="#b3ZYFGdTIj" opacity="1" fill="#dd0031" fill-opacity="1"></use><g><use xlink:href="#b3ZYFGdTIj" opacity="1" fill-opacity="0" stroke="#000000" stroke-width="1" stroke-opacity="0"></use></g></g><g><use xlink:href="#dkA66EAxo" opacity="1" fill="#c3002f" fill-opacity="1"></use><g><use xlink:href="#dkA66EAxo" opacity="1" fill-opacity="0" stroke="#000000" stroke-width="1" stroke-opacity="0"></use></g></g><g><use xlink:href="#g4hi5UotED" opacity="1" fill="#ffffff" fill-opacity="1"></use><g><use xlink:href="#g4hi5UotED" opacity="1" fill-opacity="0" stroke="#000000" stroke-width="1" stroke-opacity="0"></use></g></g></g></g></g></svg>